<?xml version="1.0" standalone="no"?>
<!DOCTYPE svg PUBLIC "-//W3C//DTD SVG 1.1//EN" "http://www.w3.org/Graphics/SVG/1.1/DTD/svg11.dtd" >
<svg>
<metadata>
Created by FontForge 20090622 at Sat May  9 06:51:51 2020
 By deploy user
4.1 (c)1986-92 by Richard A. Ware. All Rights Reserved.
</metadata>
<defs>
<font id="SansSerifFLF" horiz-adv-x="392" >
  <font-face 
    font-family="SansSerifFLF"
    font-weight="550"
    font-stretch="normal"
    units-per-em="1000"
    panose-1="2 0 6 3 2 0 0 2 0 3"
    ascent="800"
    descent="-200"
    x-height="413"
    cap-height="714"
    bbox="-38 -194 1087 903"
    underline-thickness="19"
    underline-position="-115"
    unicode-range="U+0020-U+FB02"
  />
<missing-glyph horiz-adv-x="500" 
 />
    <glyph glyph-name="fi" unicode="fi" horiz-adv-x="383" 
d="M87 372h-56v41h56v225q0 48 31.5 78t82.5 30q58 0 88 -30t30 -86v-33h-40v23q0 86 -77 86q-38 0 -56 -21t-18 -54v-218h98v-41h-98v-372h-41v372zM316 413v-413h-40v413h40z" />
    <glyph glyph-name="fl" unicode="fl" horiz-adv-x="388" 
d="M202 706q-37 0 -55.5 -18.5t-18.5 -46.5v-228h98v-41h-98v-372h-41v372h-56v41h56v233q0 43 32.5 71.5t82.5 28.5t82 -27.5t32 -72.5v-646h-40v641q0 28 -18.5 46.5t-55.5 18.5z" />
    <glyph glyph-name=".notdef" horiz-adv-x="500" 
 />
    <glyph glyph-name=".null" horiz-adv-x="0" 
 />
    <glyph glyph-name="nonmarkingreturn" horiz-adv-x="333" 
 />
    <glyph glyph-name="space" unicode=" " horiz-adv-x="302" 
 />
    <glyph glyph-name="exclam" unicode="!" horiz-adv-x="204" 
d="M122 148h-40v566h40v-566zM139 32q0 -15 -10.5 -25.5t-25.5 -10.5t-25.5 10.5t-10.5 25.5t10.5 25.5t25.5 10.5t25.5 -10.5t10.5 -25.5z" />
    <glyph glyph-name="quotedbl" unicode="&#x22;" horiz-adv-x="270" 
d="M214 727l-10 -160h-20l-11 160h41zM102 727l-10 -160h-21l-10 160h41z" />
    <glyph glyph-name="numbersign" unicode="#" horiz-adv-x="541" 
d="M227 516h139l31 127h24l-30 -127h131l-8 -24h-129l-28 -115h136l-8 -25h-134l-32 -131h-25l33 131h-140l-31 -126h-24l30 126h-130l8 25h128l28 115h-141l8 24h139l31 127h24zM193 377h140l28 115h-141z" />
    <glyph glyph-name="dollar" unicode="$" horiz-adv-x="474" 
d="M406 195q0 113 -133 163v-324q66 5 99.5 47t33.5 114zM116 549q0 -49 30 -79t87 -52v259q-49 -7 -83 -39.5t-34 -88.5zM447 195q0 -89 -45 -142.5t-129 -59.5v-54h-40v53q-87 5 -135.5 51t-61.5 104l41 14q31 -117 156 -127v340q-39 14 -62.5 26t-48.5 32.5t-36.5 50
t-11.5 70.5q0 70 46 114.5t113 49.5v53h40v-53q49 -3 87 -27t57 -66l-38 -17q-32 62 -106 70v-275q174 -66 174 -207z" />
    <glyph glyph-name="percent" unicode="%" horiz-adv-x="531" 
d="M102 0h-40l388 714h40zM292 572q0 -51 -36.5 -87t-88.5 -36q-51 0 -87.5 36t-36.5 87q0 52 36.5 88.5t87.5 36.5q52 0 88.5 -36.5t36.5 -88.5zM167 490q35 0 59.5 24t24.5 58t-24.5 59t-59.5 25q-34 0 -58.5 -24.5t-24.5 -59.5q0 -34 24.5 -58t58.5 -24zM492 115
q0 -51 -36.5 -87t-88.5 -36q-51 0 -87.5 36t-36.5 87q0 52 36.5 88.5t87.5 36.5q52 0 88.5 -36.5t36.5 -88.5zM367 33q35 0 59.5 24t24.5 58q0 35 -24.5 59.5t-59.5 24.5q-34 0 -58.5 -24.5t-24.5 -59.5q0 -34 24 -58t59 -24z" />
    <glyph glyph-name="ampersand" unicode="&#x26;" horiz-adv-x="602" 
d="M489 0l-63 94q-127 -98 -226 -98q-75 0 -119 45t-44 112q0 37 14.5 71t41.5 62t48 45.5t52.5 38t35.5 23.5l-40 60l-21.5 34.5t-15 34t-8.5 45.5q0 56 40.5 97.5t104.5 41.5q72 0 112.5 -38t40.5 -102q0 -73 -88 -130l-73 -50l156 -237l104 85l22 -29l-106 -86l79 -119
h-47zM337 466q68 45 68 100q0 48 -29.5 75.5t-85.5 27.5q-47 0 -77 -29.5t-30 -72.5q0 -17 6 -34.5t12.5 -27.5l20.5 -31l39 -59zM78 153q0 -52 35 -85t88 -33q51 0 98.5 22t106.5 67l-158 239l-23 -15.5t-28 -19.5l-27 -21t-28.5 -25t-24 -27t-21.5 -31.5t-12.5 -33
t-5.5 -37.5z" />
    <glyph glyph-name="quotesingle" unicode="'" horiz-adv-x="164" 
d="M103 714l-10 -159h-22l-10 159h42z" />
    <glyph glyph-name="parenleft" unicode="(" horiz-adv-x="184" 
d="M73 346q0 -79 17.5 -190.5t57.5 -217.5h-35q-75 197 -75 408q0 209 75 408h35q-40 -107 -57.5 -218.5t-17.5 -189.5z" />
    <glyph glyph-name="parenright" unicode=")" horiz-adv-x="194" 
d="M164 346q0 -211 -75 -408h-35q40 106 57.5 217.5t17.5 190.5q0 78 -17.5 189.5t-57.5 218.5h35q75 -199 75 -408z" />
    <glyph glyph-name="asterisk" unicode="*" horiz-adv-x="196" 
d="M24 645q0 14 13 14q18 0 58 -43q-12 34 -12 56t15 22t15 -22q0 -20 -12 -56q40 43 58 43q13 0 13 -13q0 -20 -68 -36q68 -15 68 -36q0 -12 -13 -12q-19 0 -58 42q11 -36 11 -55q0 -22 -14 -22q-16 0 -16 21q0 14 13 56q-43 -43 -59 -43q-12 0 -12 14q0 17 68 35
q-68 14 -68 35z" />
    <glyph glyph-name="plus" unicode="+" horiz-adv-x="378" 
d="M168 285v102h46v-102h102v-41h-102v-102h-46v102h-102v41h102z" />
    <glyph glyph-name="comma" unicode="," horiz-adv-x="179" 
d="M155 54l-96 -157l-13 9l74 163z" />
    <glyph glyph-name="hyphen" unicode="-" horiz-adv-x="318" 
d="M268 285v-41h-211v41h211z" />
    <glyph glyph-name="period" unicode="." horiz-adv-x="183" 
d="M123 27q0 -13 -9.5 -23t-23.5 -10t-23.5 10t-9.5 23t9.5 23t23.5 10t23.5 -10t9.5 -23z" />
    <glyph glyph-name="slash" unicode="/" horiz-adv-x="287" 
d="M64 0h-41l210 729h39z" />
    <glyph glyph-name="zero" unicode="0" horiz-adv-x="556" 
d="M18 363q0 97 28 180.5t89 138.5t145 55t145 -55t89 -138.5t28 -180.5t-28 -180t-89 -138t-145 -55t-145 55t-89 138t-28 180zM499 363q0 136 -58 234.5t-161 98.5q-69 0 -120 -49t-74.5 -123.5t-23.5 -160.5t23.5 -159.5t74.5 -122.5t120 -49q103 0 161 98t58 233z" />
    <glyph glyph-name="one" unicode="1" horiz-adv-x="545" 
d="M336 714v-714h-41v673h-121l27 41h135z" />
    <glyph glyph-name="two" unicode="2" horiz-adv-x="545" 
d="M76 551q3 22 15.5 48t36 54.5t65.5 47.5t94 19q89 0 148 -54t59 -136q0 -38 -10 -72t-36 -71t-40.5 -54.5l-51.5 -59.5l-205 -232h342v-41h-432l269 310l32 35.5t35.5 41.5t26.5 39t22.5 50t6.5 54q0 61 -49 105.5t-117 44.5q-43 0 -76.5 -15t-51.5 -38t-26.5 -41.5
t-11.5 -34.5h-45z" />
    <glyph glyph-name="three" unicode="3" horiz-adv-x="545" 
d="M84 563q11 76 61.5 121.5t130.5 45.5q84 0 138 -52t54 -130q0 -64 -35.5 -107.5t-98.5 -55.5q67 -20 103.5 -69.5t36.5 -122.5q0 -84 -57.5 -141t-147.5 -57q-79 0 -130 44t-65 112h44q13 -46 54 -80.5t97 -34.5q67 0 113.5 46t46.5 111q0 35 -11.5 63.5t-28.5 46.5
t-37.5 30t-38.5 17t-32 5h-42v59h42q15 0 30 2t35.5 10.5t35.5 22t26 39.5t11 60q0 60 -40.5 100.5t-102.5 40.5q-59 0 -97.5 -35.5t-47.5 -90.5h-47z" />
    <glyph glyph-name="four" unicode="4" horiz-adv-x="545" 
d="M455 176h63v-40h-63v-136h-42v136h-367l409 588v-548zM413 176v416l-294 -416h294z" />
    <glyph glyph-name="five" unicode="5" horiz-adv-x="545" 
d="M189 714h274v-41h-242l-43 -184q51 8 82 8q102 0 178 -63.5t76 -178.5q0 -122 -73 -193.5t-181 -71.5q-170 0 -233 150l38 15q58 -124 195 -124q87 0 150 62t63 162q0 94 -64 147.5t-149 53.5q-82 0 -142 -19z" />
    <glyph glyph-name="six" unicode="6" horiz-adv-x="545" 
d="M274 23q87 0 146.5 59.5t59.5 146.5q0 85 -60.5 145t-145.5 60q-86 0 -145.5 -60t-59.5 -145q0 -88 59 -147t146 -59zM296 714l-152 -277q60 37 130 37q107 0 176.5 -71t69.5 -174q0 -106 -69 -176t-177 -70q-107 0 -176 68.5t-69 177.5q0 91 41 164l179 321h47z" />
    <glyph glyph-name="seven" unicode="7" horiz-adv-x="545" 
d="M533 714l-475 -724l-34 26l433 657h-426v41h502z" />
    <glyph glyph-name="eight" unicode="8" horiz-adv-x="545" 
d="M457 542q0 -62 -35 -108t-77 -56q52 -18 94.5 -64.5t42.5 -123.5q0 -83 -56 -143t-151 -60q-97 0 -153 59.5t-56 143.5q0 76 41 122.5t92 65.5q-44 14 -76.5 57t-32.5 107q0 76 49 130t134 54q86 0 135 -52.5t49 -131.5zM442 190q0 69 -50 117t-119 48t-118 -48t-49 -117
q0 -68 48.5 -115.5t118.5 -47.5q71 0 120 47.5t49 115.5zM273 400q62 0 103 40.5t41 101.5t-41.5 102.5t-102.5 41.5t-102 -41.5t-41 -102.5t41 -101.5t102 -40.5z" />
    <glyph glyph-name="nine" unicode="9" horiz-adv-x="545" 
d="M276 679q-87 0 -146.5 -59.5t-59.5 -146.5q0 -85 59.5 -145t146.5 -60q86 0 145.5 60t59.5 145q0 88 -59 147t-146 59zM264 8l142 257q-60 -37 -130 -37q-107 0 -176.5 71t-69.5 174t69.5 174.5t176.5 71.5t176 -69t69 -177q0 -91 -41 -164l-178 -319z" />
    <glyph glyph-name="colon" unicode=":" horiz-adv-x="163" 
d="M117 27q0 -13 -9.5 -23t-23.5 -10t-23.5 10t-9.5 23t9.5 23t23.5 10t23.5 -10t9.5 -23zM117 322q0 -14 -9.5 -23.5t-23.5 -9.5t-23.5 9.5t-9.5 23.5t9.5 23.5t23.5 9.5t23.5 -9.5t9.5 -23.5z" />
    <glyph glyph-name="semicolon" unicode=";" horiz-adv-x="204" 
d="M150 54l-96 -157l-13 9l74 163zM136 322q0 -14 -10 -23.5t-23 -9.5t-23 9.5t-10 23.5t10 23.5t23 9.5t23 -9.5t10 -23.5z" />
    <glyph glyph-name="less" unicode="&#x3c;" horiz-adv-x="316" 
d="M283 416v-45l-178 -108l178 -108v-45l-251 153z" />
    <glyph glyph-name="equal" unicode="=" horiz-adv-x="296" 
d="M263 223v-40h-226v40h226zM263 346v-41h-226v41h226z" />
    <glyph glyph-name="greater" unicode="&#x3e;" horiz-adv-x="316" 
d="M46 155l177 108l-177 108v45l251 -153l-251 -153v45z" />
    <glyph glyph-name="question" unicode="?" horiz-adv-x="469" 
d="M229 194q39 0 63 21l24 -33q-28 -30 -87 -30q-42 0 -72.5 25t-30.5 69q0 24 7 43.5t25 38.5t32 30.5t45 33.5t46 34q65 49 84 74q26 33 26 72q0 51 -40 81.5t-105 30.5q-103 0 -162 -110l-38 17q20 50 69.5 91.5t130.5 41.5q83 0 134.5 -40.5t51.5 -111.5q0 -24 -7 -46
t-14 -35.5t-25 -31t-25 -23.5t-31 -22.5t-26 -18.5q-89 -64 -105 -81q-29 -30 -29 -68q0 -23 17 -37.5t42 -14.5zM259 32q0 -14 -10.5 -24.5t-24.5 -10.5t-24.5 10.5t-10.5 24.5t10.5 24.5t24.5 10.5t24.5 -10.5t10.5 -24.5z" />
    <glyph glyph-name="at" unicode="@" horiz-adv-x="596" 
d="M179 383q0 -45 23.5 -74.5t70.5 -29.5q55 0 84 35.5t29 83.5q0 41 -25 70t-68 29q-50 0 -82 -34t-32 -80zM57 399q0 -96 64 -166t179 -70q48 0 95.5 16.5t65.5 38.5l15 -15q-18 -23 -69.5 -41.5t-108.5 -18.5q-125 0 -193 75.5t-68 180.5q0 101 72.5 177.5t189.5 76.5
t189.5 -73.5t72.5 -168.5q0 -58 -26 -105.5t-83 -47.5q-31 0 -47.5 19.5t-16.5 46.5q-11 -25 -39.5 -45.5t-75.5 -20.5q-56 0 -85.5 35.5t-29.5 89.5q0 56 38 95t97 39q82 0 105 -70l5 64h19l-13 -159q-2 -73 47 -73q41 0 63 42t22 90q0 88 -67.5 155t-174.5 67
t-174.5 -70.5t-67.5 -163.5z" />
    <glyph glyph-name="A" unicode="A" horiz-adv-x="633" 
d="M316 737l286 -737h-41l-82 214h-325l-83 -214h-40zM316 633l-146 -378h292z" />
    <glyph glyph-name="B" unicode="B" horiz-adv-x="559" 
d="M116 41h184q78 0 130.5 47t52.5 119t-52.5 118.5t-130.5 46.5h-184v-331zM116 413h143q59 0 96.5 36.5t37.5 93.5t-38.5 93.5t-101.5 36.5h-137v-260zM434 543q0 -96 -77 -138q76 -17 121 -70t45 -128q0 -90 -63 -148.5t-161 -58.5h-223v714h174q86 0 135 -48t49 -123z
" />
    <glyph glyph-name="C" unicode="C" horiz-adv-x="702" 
d="M50 357q0 161 103 264t264 103q151 0 251 -76v-51q-105 87 -251 87q-142 0 -234 -92.5t-92 -234.5t92 -234t234 -92q47 0 86 8t72 25t49 28t44 32v-47q-2 -2 -16.5 -13l-20 -15t-21.5 -14t-27 -14.5t-30.5 -11.5t-38 -10.5t-44 -6t-53.5 -2.5q-161 0 -264 103t-103 264z
" />
    <glyph glyph-name="D" unicode="D" horiz-adv-x="688" 
d="M633 358q0 -155 -91.5 -256.5t-227.5 -101.5h-238v714h238q136 0 227.5 -100.5t91.5 -255.5zM116 41h198q112 0 195 86t83 231t-83 230.5t-195 85.5h-198v-633z" />
    <glyph glyph-name="E" unicode="E" horiz-adv-x="473" 
d="M414 673h-302v-260h302v-44h-302v-328h302v-41h-343v714h343v-41z" />
    <glyph glyph-name="F" unicode="F" horiz-adv-x="433" 
d="M386 673h-270v-260h270v-41h-270v-372h-40v714h310v-41z" />
    <glyph glyph-name="G" unicode="G" horiz-adv-x="822" 
d="M686 552q-96 132 -269 132q-142 0 -234.5 -92.5t-92.5 -234.5t92.5 -234t234.5 -92q80 0 144 29t100.5 73t56 88t22.5 83h-236v41h281q-4 -95 -45 -174t-125 -130t-198 -51q-161 0 -264 103t-103 264q0 158 103.5 262.5t263.5 104.5q193 0 302 -147z" />
    <glyph glyph-name="H" unicode="H" horiz-adv-x="615" 
d="M116 413h393v301h41v-714h-41v372h-393v-372h-40v714h40v-301z" />
    <glyph glyph-name="I" unicode="I" horiz-adv-x="192" 
d="M117 0h-40v714h40v-714z" />
    <glyph glyph-name="J" unicode="J" horiz-adv-x="315" 
d="M255 714v-572q0 -150 -115 -150q-77 0 -110 65l35 22q26 -46 74 -46q75 0 75 111v570h41z" />
    <glyph glyph-name="K" unicode="K" horiz-adv-x="524" 
d="M107 397l319 317h58l-342 -341l372 -373h-57l-344 345l-6 -6v-339h-41v714h41v-317z" />
    <glyph glyph-name="L" unicode="L" horiz-adv-x="356" 
d="M116 41h201v-41h-241v714h40v-673z" />
    <glyph glyph-name="M" unicode="M" horiz-adv-x="902" 
d="M209 735l243 -637l243 638l186 -736h-42l-152 600l-235 -618l-235 619l-153 -601h-41z" />
    <glyph glyph-name="N" unicode="N" horiz-adv-x="715" 
d="M610 714h41v-726l-534 618v-606h-40v719l533 -625v620z" />
    <glyph glyph-name="O" unicode="O" horiz-adv-x="822" 
d="M785 357q0 -161 -103.5 -264t-264.5 -103t-264 103t-103 264t103 264t264 103t264.5 -103t103.5 -264zM417 31q143 0 235 92t92 234q0 143 -92 235t-235 92q-142 0 -234 -92.5t-92 -234.5t92 -234t234 -92z" />
    <glyph glyph-name="P" unicode="P" horiz-adv-x="490" 
d="M250 714q86 0 140 -48t54 -129t-54.5 -130.5t-139.5 -49.5h-134v-357h-40v714h174zM249 398q67 0 110.5 38t43.5 101q0 62 -43.5 99t-110.5 37h-133v-275h133z" />
    <glyph glyph-name="Q" unicode="Q" horiz-adv-x="822" 
d="M417 -10q-161 0 -264 103t-103 264t103 264t264 103t264.5 -103t103.5 -264q0 -93 -37.5 -170.5t-104.5 -126.5l61 -61h-55l-39 40q-83 -49 -193 -49zM744 357q0 143 -92 235t-235 92q-142 0 -234 -92.5t-92 -234.5t92 -234t234 -92q92 0 162 39l-201 202h53l182 -182
q62 43 96.5 112.5t34.5 154.5z" />
    <glyph glyph-name="R" unicode="R" horiz-adv-x="484" 
d="M404 538q0 58 -40 96.5t-114 38.5h-134v-275h135q73 0 113 40t40 100zM448 0h-48l-257 357h-27v-357h-40v714h175q94 0 144.5 -51t50.5 -126q0 -77 -51 -128.5t-144 -51.5h-62z" />
    <glyph glyph-name="S" unicode="S" horiz-adv-x="498" 
d="M399 607q-43 71 -139 71q-60 0 -100 -33.5t-40 -91.5q0 -23 9 -43t20 -32.5t33.5 -26.5t37.5 -21l44 -20q35 -16 58 -28t51.5 -32.5t45 -42t28 -53t11.5 -69.5q0 -88 -52 -140.5t-155 -52.5q-166 0 -211 155l41 14q38 -128 170 -128q83 0 124.5 41.5t41.5 110.5
q0 38 -13 67.5t-41.5 51.5t-52 34.5t-65.5 30.5q-39 17 -62 29.5t-50.5 34.5t-40.5 51.5t-13 68.5q0 73 51 119t130 46q127 0 178 -94z" />
    <glyph glyph-name="T" unicode="T" horiz-adv-x="441" 
d="M402 714v-41h-158v-673h-41v673h-158v41h357z" />
    <glyph glyph-name="U" unicode="U" horiz-adv-x="555" 
d="M116 178q0 -68 49 -106t117 -38t117.5 38t49.5 106v536h41v-536q0 -88 -60.5 -136.5t-147.5 -48.5t-146.5 48.5t-59.5 136.5v536h40v-536z" />
    <glyph glyph-name="V" unicode="V" horiz-adv-x="526" 
d="M79 714l187 -590l188 590h43l-231 -726l-229 726h42z" />
    <glyph glyph-name="W" unicode="W" horiz-adv-x="876" 
d="M74 714l187 -584l181 597l180 -597l187 584h42l-231 -724l-178 599l-179 -599l-229 724h40z" />
    <glyph glyph-name="X" unicode="X" horiz-adv-x="530" 
d="M92 714l176 -309l177 309h47l-198 -348l210 -366h-47l-190 331l-188 -331h-46l210 369l-198 345h47z" />
    <glyph glyph-name="Y" unicode="Y" horiz-adv-x="511" 
d="M80 714l176 -309l178 309h47l-204 -357v-357h-41v357l-203 357h47z" />
    <glyph glyph-name="Z" unicode="Z" horiz-adv-x="554" 
d="M522 714l-410 -673h408v-41h-481l409 672h-385v42h459z" />
    <glyph glyph-name="bracketleft" unicode="[" horiz-adv-x="214" 
d="M167 720h-67v-732h70v-34h-111v801h108v-35z" />
    <glyph glyph-name="backslash" unicode="\" horiz-adv-x="281" 
d="M267 0h-39l-205 714h40z" />
    <glyph glyph-name="bracketright" unicode="]" horiz-adv-x="214" 
d="M172 -46h-111v34h71v732h-68v35h108v-801z" />
    <glyph glyph-name="asciicircum" unicode="^" horiz-adv-x="352" 
d="M162 658h33l121 -281h-27l-110 206l-112 -206h-26z" />
    <glyph glyph-name="underscore" unicode="_" horiz-adv-x="357" 
d="M368 -20v-36h-368v36h368z" />
    <glyph glyph-name="grave" unicode="`" horiz-adv-x="332" 
d="M222 469l-131 133l22 24l134 -134z" />
    <glyph glyph-name="a" unicode="a" horiz-adv-x="510" 
d="M248 -7q-88 0 -150.5 62.5t-62.5 150.5t62.5 150.5t150.5 62.5q102 0 165 -78v72h41v-413h-41v71q-63 -78 -165 -78zM75 206q0 -72 50.5 -122.5t122.5 -50.5t122.5 50.5t50.5 122.5t-50.5 122.5t-122.5 50.5t-122.5 -50.5t-50.5 -122.5z" />
    <glyph glyph-name="b" unicode="b" horiz-adv-x="517" 
d="M96 0h-41v740h41v-404q63 83 169 83q89 0 151 -62.5t62 -150.5t-62 -150.5t-151 -62.5q-104 0 -169 83v-76zM92 206q0 -72 50.5 -122.5t122.5 -50.5t122.5 50.5t50.5 122.5t-50.5 122.5t-122.5 50.5t-122.5 -50.5t-50.5 -122.5z" />
    <glyph glyph-name="c" unicode="c" horiz-adv-x="438" 
d="M47 206q0 92 61.5 153t152.5 61q80 0 126 -36v-49q-58 45 -126 45q-77 0 -125.5 -49t-48.5 -125t48.5 -125t125.5 -49q73 0 126 48v-51q-54 -37 -126 -37q-92 0 -153 61t-61 153z" />
    <glyph glyph-name="d" unicode="d" horiz-adv-x="521" 
d="M256 -7q-88 0 -150.5 62.5t-62.5 150.5t62.5 150.5t150.5 62.5q105 0 168 -81v402h41v-740h-41v74q-64 -81 -168 -81zM83 206q0 -72 50.5 -122.5t122.5 -50.5t122.5 50.5t50.5 122.5t-50.5 122.5t-122.5 50.5t-122.5 -50.5t-50.5 -122.5z" />
    <glyph glyph-name="e" unicode="e" horiz-adv-x="490" 
d="M415 254q-10 46 -52 86t-115 40q-74 0 -114.5 -39t-53.5 -87h335zM401 119l37 -17q-55 -110 -190 -110q-94 0 -154 60t-60 154t61 154t153 60q95 0 154 -59.5t59 -145.5h-387q0 -85 48 -134t126 -49q105 0 153 87z" />
    <glyph glyph-name="f" unicode="f" horiz-adv-x="271" 
d="M99 372h-56v41h56v235q0 43 25 69t71 26q26 0 55 -9v-41q-31 9 -54 9q-56 0 -56 -66v-223h98v-41h-98v-372h-41v372z" />
    <glyph glyph-name="g" unicode="g" horiz-adv-x="510" 
d="M413 413h41v-404q0 -91 -56 -147t-147 -56t-140.5 37.5t-61.5 95.5h41q10 -45 53.5 -68.5t107.5 -23.5q74 0 118 41.5t44 121.5v61q-65 -78 -165 -78q-88 0 -150.5 62.5t-62.5 150.5t62.5 150.5t150.5 62.5q102 0 165 -78v72zM75 206q0 -72 50.5 -122.5t122.5 -50.5
t122.5 50.5t50.5 122.5t-50.5 122.5t-122.5 50.5t-122.5 -50.5t-50.5 -122.5z" />
    <glyph glyph-name="h" unicode="h" horiz-adv-x="456" 
d="M74 0v740h41v-382q38 61 123 61q81 0 122 -44.5t41 -122.5v-253h-41v249q0 62 -30.5 96.5t-91.5 34.5q-58 0 -90.5 -33t-32.5 -77v-269h-41z" />
    <glyph glyph-name="i" unicode="i" horiz-adv-x="184" 
d="M114 413v-413h-41v413h41zM127 520q0 -14 -9.5 -23.5t-23.5 -9.5t-23.5 9.5t-9.5 23.5t9.5 23.5t23.5 9.5t23.5 -9.5t9.5 -23.5z" />
    <glyph glyph-name="j" unicode="j" horiz-adv-x="185" 
d="M115 413v-593h-41v593h41zM127 520q0 -14 -9.5 -23.5t-23.5 -9.5t-23.5 9.5t-9.5 23.5t9.5 23.5t23.5 9.5t23.5 -9.5t9.5 -23.5z" />
    <glyph glyph-name="k" unicode="k" horiz-adv-x="417" 
d="M108 251l179 178h58l-187 -186l243 -243h-54l-216 215l-23 -23v-192h-41v740h41v-489z" />
    <glyph glyph-name="l" unicode="l" horiz-adv-x="192" 
d="M117 0h-40v740h40v-740z" />
    <glyph glyph-name="m" unicode="m" horiz-adv-x="643" 
d="M66 0v413h41v-41q29 47 97 47q44 0 74 -18.5t44 -46.5q36 65 117 65q65 0 101.5 -36t36.5 -98v-285h-41v285q0 42 -25.5 68t-71.5 26q-47 0 -72 -26t-25 -68v-285h-41v285q0 41 -26.5 67.5t-70.5 26.5q-45 0 -71 -27t-26 -67v-285h-41z" />
    <glyph glyph-name="n" unicode="n" horiz-adv-x="451" 
d="M66 0v413h41v-50q28 55 119 55q80 0 119.5 -45.5t39.5 -121.5v-251h-41v247q0 62 -30 96.5t-88 34.5t-88.5 -34.5t-30.5 -92.5v-251h-41z" />
    <glyph glyph-name="o" unicode="o" horiz-adv-x="498" 
d="M461 206q0 -88 -62.5 -150.5t-150.5 -62.5t-150.5 62.5t-62.5 150.5q0 89 62.5 151.5t150.5 62.5t150.5 -62.5t62.5 -151.5zM75 206q0 -72 50.5 -122.5t122.5 -50.5t122.5 50.5t50.5 122.5t-50.5 123t-122.5 51t-122.5 -51t-50.5 -123z" />
    <glyph glyph-name="p" unicode="p" horiz-adv-x="513" 
d="M275 419q89 0 151 -62.5t62 -150.5t-62 -150.5t-151 -62.5q-51 0 -95.5 22.5t-74.5 61.5v-271h-41v607h41v-78q64 84 170 84zM102 206q0 -72 50.5 -122.5t122.5 -50.5t122.5 50.5t50.5 122.5t-50.5 122.5t-122.5 50.5t-122.5 -50.5t-50.5 -122.5z" />
    <glyph glyph-name="q" unicode="q" horiz-adv-x="502" 
d="M411 413h41v-607h-41v268q-63 -81 -168 -81q-89 0 -151 62.5t-62 150.5t62 150.5t151 62.5q104 0 168 -81v75zM70 206q0 -72 50.5 -122.5t122.5 -50.5t122.5 50.5t50.5 122.5t-50.5 122.5t-122.5 50.5t-122.5 -50.5t-50.5 -122.5z" />
    <glyph glyph-name="r" unicode="r" horiz-adv-x="310" 
d="M66 0v413h41v-36q23 41 80 41q52 0 96 -32l-22 -34q-35 26 -72 26q-35 0 -58.5 -27.5t-23.5 -58.5v-292h-41z" />
    <glyph glyph-name="s" unicode="s" horiz-adv-x="331" 
d="M256 345q-34 34 -87 34q-30 0 -51 -17t-21 -46t19 -44t60 -29q32 -12 47.5 -19t39.5 -22t34.5 -37t10.5 -52q0 -51 -37.5 -86t-97.5 -35q-97 0 -144 87l35 21q14 -30 42.5 -48.5t66.5 -18.5q46 0 70 21.5t24 58.5q0 17 -7 30.5t-14 21.5t-25.5 17t-28 12.5t-33.5 11.5
q-49 16 -76 39.5t-27 70.5q0 43 33 73t80 30q69 0 117 -48z" />
    <glyph glyph-name="t" unicode="t" horiz-adv-x="250" 
d="M87 372h-56v41h56v181h41v-181h96v-41h-96v-372h-41v372z" />
    <glyph glyph-name="u" unicode="u" horiz-adv-x="429" 
d="M102 413v-258q0 -123 112 -123q115 0 115 123v258h40v-258q0 -76 -41 -119.5t-114 -43.5t-113 43.5t-40 119.5v258h41z" />
    <glyph glyph-name="v" unicode="v" horiz-adv-x="435" 
d="M221 84l151 329h46l-196 -431l-195 431h44z" />
    <glyph glyph-name="w" unicode="w" horiz-adv-x="684" 
d="M212 93l133 333l132 -332l138 319h46l-187 -431l-129 330l-131 -330l-185 431h44z" />
    <glyph glyph-name="x" unicode="x" horiz-adv-x="361" 
d="M67 413l115 -171l114 171h48l-137 -204l140 -209h-48l-117 173l-117 -173h-49l141 208l-138 205h48z" />
    <glyph glyph-name="y" unicode="y" horiz-adv-x="445" 
d="M226 87l152 326h45l-282 -607h-46l107 232l-174 375h44z" />
    <glyph glyph-name="z" unicode="z" horiz-adv-x="457" 
d="M424 413l-293 -372h288v-41h-373l295 374h-278v39h361z" />
    <glyph glyph-name="braceleft" unicode="{" horiz-adv-x="193" 
d="M90 445q0 -56 -41 -90q41 -39 41 -90v-199q0 -47 17 -63.5t71 -16.5v-37q-72 0 -98.5 26t-26.5 89v201q0 47 -45 90q45 40 45 90v183q0 63 27 92.5t97 29.5v-37q-49 0 -68 -19.5t-19 -65.5v-183z" />
    <glyph glyph-name="bar" unicode="|" horiz-adv-x="133" 
d="M89 -46h-35v801h35v-801z" />
    <glyph glyph-name="braceright" unicode="}" horiz-adv-x="193" 
d="M16 713v37q70 0 97 -29.5t27 -92.5v-183q0 -50 45 -90q-45 -43 -45 -90v-201q0 -63 -26.5 -89t-98.5 -26v37q54 0 71 16.5t17 63.5v199q0 51 41 90q-41 34 -41 90v183q0 46 -19 65.5t-68 19.5z" />
    <glyph glyph-name="asciitilde" unicode="~" horiz-adv-x="429" 
d="M30 346q51 51 117 51q33 0 77 -24l17 -8.5t18 -8t14.5 -4t19.5 -2.5q45 0 77 36l32 -27q-48 -50 -107 -50q-35 0 -81 24t-67 24q-49 0 -89 -40z" />
    <glyph glyph-name="exclamdown" unicode="&#xa1;" horiz-adv-x="204" 
d="M84 492h40v-566h-40v566zM67 608q0 15 10.5 25.5t25.5 10.5t25.5 -10.5t10.5 -25.5t-10.5 -25.5t-25.5 -10.5t-25.5 10.5t-10.5 25.5z" />
    <glyph glyph-name="cent" unicode="&#xa2;" horiz-adv-x="423" 
d="M38 351q0 79 47 138t132 68v50h42v-49q68 -5 112 -40v-49q-59 44 -112 46v-326q57 1 110 41v-46q-48 -34 -110 -34v-58h-42v59q-85 8 -132 66t-47 134zM82 351q0 -59 36 -105.5t99 -55.5v324q-65 -10 -100 -56.5t-35 -106.5z" />
    <glyph glyph-name="sterling" unicode="&#xa3;" horiz-adv-x="474" 
d="M121 566q0 -53 51 -130q7 -11 24.5 -35l27 -38t19.5 -35.5t14 -40.5h114v-43h-112q0 -44 -20 -87.5t-52 -73.5q28 -3 71 -27q38 -22 74 -22q51 0 89 42l27 -26q-52 -56 -116 -56q-46 0 -90 25q-44 23 -79 23q-53 0 -98 -43l-26 28q17 22 45 38t51 16q82 82 82 163h-107
v43h104q-4 15 -13 33t-18 30.5l-25 34.5l-24 33q-57 85 -57 148q0 68 47.5 110.5t127.5 42.5q76 0 123.5 -37.5t47.5 -105.5h-40q0 51 -37.5 77t-93.5 26q-131 0 -131 -113z" />
    <glyph glyph-name="currency" unicode="&#xa4;" horiz-adv-x="459" 
d="M128 0h-41v372h-56v41h56v196q0 51 32.5 81t81.5 30q64 0 90 -37q4 26 30.5 42t59.5 16q21 0 51 -6v-39q-32 6 -52 6q-59 0 -59 -64v-225h98v-41h-98v-372h-40v372h-153v-372zM281 634q-9 20 -30 33t-50 13q-73 0 -73 -76v-191h153v221z" />
    <glyph glyph-name="yen" unicode="&#xa5;" horiz-adv-x="514" 
d="M80 714l176 -310l178 310h47l-201 -352h99v-41h-102v-45h102v-41h-102v-235h-41v235h-101v41h101v45h-101v41h98l-200 352h47z" />
    <glyph glyph-name="brokenbar" unicode="&#xa6;" horiz-adv-x="133" 
d="M89 327v-327h-35v327h35zM54 436v319h35v-319h-35z" />
    <glyph glyph-name="section" unicode="&#xa7;" horiz-adv-x="380" 
d="M328 80q0 -58 -39.5 -93.5t-102.5 -35.5q-53 0 -88.5 27.5t-50.5 71.5l37 17q28 -77 102 -77q45 0 71 26t26 64q0 42 -26.5 76t-75.5 40q-60 7 -102 46t-42 103q0 102 92 143q-71 38 -71 115q0 51 34.5 88t93.5 37q86 0 128 -84l-30 -20q-37 66 -98 66q-40 0 -63 -26.5
t-23 -58.5q0 -39 24 -64.5t68 -32.5q69 -11 111.5 -52.5t42.5 -107.5q0 -90 -86 -138q68 -41 68 -130zM83 350q0 -49 33 -77t76 -28q51 0 80 27t29 73q0 49 -29.5 79.5t-87.5 30.5q-49 0 -75 -32.5t-26 -72.5z" />
    <glyph glyph-name="dieresis" unicode="&#xa8;" horiz-adv-x="429" 
d="M184 520q0 -14 -10 -23.5t-23 -9.5t-23 9.5t-10 23.5t10 23.5t23 9.5t23 -9.5t10 -23.5zM321 520q0 -14 -9.5 -23.5t-23.5 -9.5t-23.5 9.5t-9.5 23.5t9.5 23.5t23.5 9.5t23.5 -9.5t9.5 -23.5z" />
    <glyph glyph-name="copyright" unicode="&#xa9;" horiz-adv-x="588" 
d="M187 394q0 -41 29 -71t81 -30q58 0 95 39v-24q-37 -35 -95 -35q-61 0 -95.5 36t-34.5 85t34 84.5t96 35.5q49 0 95 -30v-24q-45 34 -95 34q-52 0 -81 -29.5t-29 -70.5zM560 389q0 -109 -77 -186t-186 -77t-186 77t-77 186t77 186t186 77t186 -77t77 -186zM55 390
q0 -100 71.5 -171.5t171.5 -71.5t171.5 71.5t71.5 171.5t-71.5 171.5t-171.5 71.5t-171.5 -71.5t-71.5 -171.5z" />
    <glyph glyph-name="ordfeminine" unicode="&#xaa;" horiz-adv-x="373" 
d="M334 365v-29h-284v29h284zM185 420q-53 0 -90 37.5t-37 90.5t37 90.5t90 37.5q62 0 99 -47v43h25v-248h-25v43q-37 -47 -99 -47zM82 548q0 -43 30 -73.5t73 -30.5t73.5 30t30.5 74t-30.5 74t-73.5 30t-73 -30.5t-30 -73.5z" />
    <glyph glyph-name="guillemotleft" unicode="&#xab;" horiz-adv-x="439" 
d="M222 70l-184 185l189 189l20 -21l-168 -168l164 -164zM367 70l-184 185l188 189l21 -21l-169 -168l165 -164z" />
    <glyph glyph-name="logicalnot" unicode="&#xac;" 
d="M318 380v-26h-254v26h254zM205 741v-322h-18v303h-54l12 19h60zM276 241q0 -28 -15.5 -49t-34.5 -25q62 -22 62 -85q0 -37 -25.5 -64t-68.5 -27q-44 0 -69 27t-25 64q0 34 18.5 55t41.5 30q-20 7 -34.5 26t-14.5 48q0 34 22 58t61 24q38 0 60 -23.5t22 -58.5zM270 82
q0 31 -22.5 53t-53.5 22t-53.5 -22t-22.5 -53t22 -52t54 -21t54 21t22 52zM194 177q27 0 45.5 18t18.5 46q0 27 -18.5 45.5t-45.5 18.5q-28 0 -46.5 -18.5t-18.5 -45.5q0 -28 18.5 -46t46.5 -18z" />
    <glyph glyph-name="registered" unicode="&#xae;" horiz-adv-x="399" 
d="M265 585q0 -49 -51 -49h-8l59 -84h-18l-58 84h-31v-84h-14v182h70q23 0 37 -14t14 -35zM251 585q0 15 -9.5 25t-26.5 10h-57v-70h57q36 0 36 35zM357 539q0 -65 -46.5 -111.5t-111.5 -46.5t-111.5 46.5t-46.5 111.5t46.5 111.5t111.5 46.5t111.5 -46.5t46.5 -111.5z
M56 539q0 -59 42 -101t101 -42t101 42t42 101t-42 101t-101 42t-101 -42t-42 -101z" />
    <glyph glyph-name="macron" unicode="&#xaf;" horiz-adv-x="393" 
d="M342 510v-36h-285v36h285z" />
    <glyph glyph-name="degree" unicode="&#xb0;" horiz-adv-x="212" 
d="M189 615q0 -35 -24.5 -59t-58.5 -24t-58.5 24t-24.5 59t24.5 59t58.5 24t58.5 -24t24.5 -59zM44 616q0 -26 18 -44t44 -18t44 18t18 44t-18 44t-44 18t-44 -18t-18 -44z" />
    <glyph glyph-name="plusminus" unicode="&#xb1;" horiz-adv-x="388" 
d="M169 364v102h46v-102h102v-41h-102v-102h-46v102h-102v41h102zM324 183v-41h-257v41h257z" />
    <glyph glyph-name="twosuperior" unicode="&#xb2;" 
d="M109 666q3 25 26.5 50.5t67.5 25.5q41 0 67.5 -24.5t26.5 -61.5q0 -22 -11 -45.5t-19.5 -33.5l-31.5 -36l-93 -105h154v-18h-194l121 140q1 1 14 15t16.5 19l11.5 17t10.5 23t2.5 24q0 28 -22 48t-53 20q-36 0 -53 -19.5t-21 -38.5h-20z" />
    <glyph glyph-name="threesuperior" unicode="&#xb3;" 
d="M116 673q5 35 27.5 55.5t58.5 20.5q38 0 62 -23.5t24 -58.5q0 -61 -60 -74q63 -19 63 -86q0 -38 -25.5 -63.5t-66.5 -25.5q-36 0 -59 20t-29 50h20q6 -21 24.5 -36.5t43.5 -15.5q30 0 51 21t21 50q0 36 -23 54.5t-44 18.5h-19v26h19q13 0 25 3.5t24.5 18t12.5 39.5
q0 27 -18 45t-46 18q-27 0 -44 -16t-21 -41h-21z" />
    <glyph glyph-name="acute" unicode="&#xb4;" horiz-adv-x="408" 
d="M313 602l-133 -133l-24 24l133 133z" />
    <glyph glyph-name="mu" unicode="&#xb5;" horiz-adv-x="471" 
d="M316 0h-40v372h-148v-372h-41v372h-56v41h56v232q0 49 32.5 75t81.5 26q48 0 81.5 -25.5t33.5 -70.5v-237h126v-41h-126v-372zM201 706q-34 0 -53.5 -17.5t-19.5 -50.5v-225h148v227q0 31 -20 48.5t-55 17.5z" />
    <glyph glyph-name="paragraph" unicode="&#xb6;" horiz-adv-x="505" 
d="M351 -61h-41v418h-67q-86 0 -140 47.5t-54 130.5q0 82 56 130.5t138 48.5h108v-775zM446 -61h-41v775h41v-775z" />
    <glyph glyph-name="periodcentered" unicode="&#xb7;" horiz-adv-x="276" 
d="M174 324q0 -14 -10 -23.5t-23 -9.5t-23 9.5t-10 23.5t10 23.5t23 9.5t23 -9.5t10 -23.5z" />
    <glyph glyph-name="cedilla" unicode="&#xb8;" horiz-adv-x="260" 
d="M157 -41q16 -5 27 -19.5t11 -33.5q0 -22 -16 -39.5t-42 -17.5q-40 0 -65 25v40q8 -9 22.5 -15.5t23.5 -6.5q28 0 28 24q0 11 -11 21.5t-25 13.5l16 49h45z" />
    <glyph glyph-name="onesuperior" unicode="&#xb9;" 
d="M219 741v-322h-18v303h-54l12 19h60z" />
    <glyph glyph-name="ordmasculine" unicode="&#xba;" horiz-adv-x="373" 
d="M328 365v-29h-282v29h282zM315 552q0 -53 -37.5 -90.5t-90.5 -37.5t-90.5 37.5t-37.5 90.5t37.5 90.5t90.5 37.5t90.5 -37.5t37.5 -90.5zM83 552q0 -44 30.5 -74t73.5 -30t73.5 30t30.5 74t-30.5 74t-73.5 30t-73.5 -30t-30.5 -74z" />
    <glyph glyph-name="guillemotright" unicode="&#xbb;" horiz-adv-x="439" 
d="M54 423l20 21l189 -189l-184 -185l-21 21l164 164zM204 423l20 21l189 -189l-184 -185l-21 21l164 164z" />
    <glyph glyph-name="onequarter" unicode="&#xbc;" 
d="M333 380v-26h-254v26h254zM219 741v-322h-18v303h-54l12 19h60zM260 78h28v-18h-28v-61h-19v61h-165l184 265v-247zM241 78v187l-132 -187h132z" />
    <glyph glyph-name="onehalf" unicode="&#xbd;" 
d="M335 380v-26h-254v26h254zM225 741v-322h-18v303h-54l12 19h60zM113 248q3 25 26.5 50.5t67.5 25.5q41 0 67.5 -24.5t26.5 -61.5q0 -22 -11 -45.5t-19.5 -33.5l-31.5 -36l-93 -105h154v-18h-194l121 140q1 1 14 15t16.5 19l11.5 17t10.5 23t2.5 24q0 28 -22 48t-53 20
q-36 0 -53 -19.5t-21 -38.5h-20z" />
    <glyph glyph-name="threequarters" unicode="&#xbe;" 
d="M327 380v-26h-255v26h255zM116 673q5 35 27.5 55.5t58.5 20.5q38 0 62 -23.5t24 -58.5q0 -61 -60 -74q63 -19 63 -86q0 -38 -25.5 -63.5t-66.5 -25.5q-36 0 -59 20t-29 50h20q6 -21 24.5 -36.5t43.5 -15.5q30 0 51 21t21 50q0 36 -23 54.5t-44 18.5h-19v26h19
q13 0 25 3.5t24.5 18t12.5 39.5q0 27 -18 45t-46 18q-27 0 -44 -16t-21 -41h-21zM264 78h28v-18h-28v-61h-19v61h-165l184 265v-247zM245 78v187l-132 -187h132z" />
    <glyph glyph-name="questiondown" unicode="&#xbf;" horiz-adv-x="469" 
d="M240 450q-39 0 -63 -21l-24 33q28 30 87 30q42 0 72.5 -25t30.5 -69q0 -24 -7 -43.5t-25 -38.5t-32 -30.5t-45 -33.5t-46 -34q-65 -49 -84 -74q-26 -33 -26 -72q0 -51 40 -81.5t105 -30.5q103 0 162 110l38 -17q-20 -50 -69.5 -91.5t-130.5 -41.5q-83 0 -134.5 40.5
t-51.5 111.5q0 24 7 46t14 35.5t25 31t25 23.5t31 22.5t26 18.5q89 64 105 81q29 30 29 68q0 23 -17 37.5t-42 14.5zM210 612q0 14 10.5 24.5t24.5 10.5t24.5 -10.5t10.5 -24.5t-10.5 -24.5t-24.5 -10.5t-24.5 10.5t-10.5 24.5z" />
    <glyph glyph-name="Agrave" unicode="&#xc0;" horiz-adv-x="633" 
d="M320 752l-118 119l20 22l121 -121zM316 737l286 -737h-41l-82 214h-325l-83 -214h-40zM316 633l-146 -378h292z" />
    <glyph glyph-name="Aacute" unicode="&#xc1;" horiz-adv-x="633" 
d="M426 865l-112 -111l-19 19l111 112zM316 737l286 -737h-41l-82 214h-325l-83 -214h-40zM316 633l-146 -378h292z" />
    <glyph glyph-name="Acircumflex" unicode="&#xc2;" horiz-adv-x="633" 
d="M318 878l121 -121l-21 -21l-100 99l-100 -99l-21 21zM316 737l286 -737h-41l-82 214h-325l-83 -214h-40zM316 633l-146 -378h292z" />
    <glyph glyph-name="Atilde" unicode="&#xc3;" horiz-adv-x="628" 
d="M155 778q12 22 37 36.5t58 14.5q31 0 69 -19q30 -16 64 -16q40 0 64 28l29 -22q-38 -47 -89 -47q-41 0 -77 18q-41 18 -65 18q-35 0 -62 -33zM316 737l286 -737h-41l-82 214h-325l-83 -214h-40zM316 633l-146 -378h292z" />
    <glyph glyph-name="Adieresis" unicode="&#xc4;" horiz-adv-x="628" 
d="M277 796q0 -14 -9.5 -23.5t-23.5 -9.5t-23.5 9.5t-9.5 23.5t9.5 23.5t23.5 9.5t23.5 -9.5t9.5 -23.5zM414 796q0 -14 -10 -23.5t-23 -9.5t-23 9.5t-10 23.5t10 23.5t23 9.5t23 -9.5t10 -23.5zM316 737l286 -737h-41l-82 214h-325l-83 -214h-40zM316 633l-146 -378h292z
" />
    <glyph glyph-name="Aring" unicode="&#xc5;" horiz-adv-x="633" 
d="M384 813q0 -28 -20 -48t-48 -20t-48 20t-20 48t20 48t48 20t48 -20t20 -48zM266 814q0 -21 14.5 -36t35.5 -15t35.5 15t14.5 36t-14.5 35.5t-35.5 14.5t-35.5 -14.5t-14.5 -35.5zM316 737l286 -737h-41l-82 214h-325l-83 -214h-40zM316 633l-146 -378h292z" />
    <glyph glyph-name="AE" unicode="&#xc6;" horiz-adv-x="740" 
d="M342 610l-108 -243h108v243zM69 0h-40l318 714h339v-41h-302v-260h302v-41h-303v-331h303v-41h-344v327h-127z" />
    <glyph glyph-name="Ccedilla" unicode="&#xc7;" horiz-adv-x="702" 
d="M417 724q151 0 251 -76v-51q-105 87 -251 87q-142 0 -234 -92.5t-92 -234.5t92 -234t234 -92q47 0 86 8t72 25t49 28t44 32v-47q-2 -2 -14.5 -11.5t-17 -12.5l-18 -12t-22 -13l-23.5 -11t-28.5 -10.5t-31.5 -7.5t-38.5 -6t-43.5 -3l-11 -28q31 -20 31 -53
q0 -26 -16.5 -43t-44.5 -17q-42 0 -68 28l16 33q17 -19 40 -19q28 0 28 24q0 11 -10.5 22.5t-22.5 15.5l16 37q-149 13 -244 112.5t-95 254.5q0 161 103 264t264 103z" />
    <glyph glyph-name="Egrave" unicode="&#xc8;" horiz-adv-x="473" 
d="M243 752l-119 119l21 22l120 -121zM414 673h-302v-260h302v-44h-302v-328h302v-41h-343v714h343v-41z" />
    <glyph glyph-name="Eacute" unicode="&#xc9;" horiz-adv-x="473" 
d="M354 865l-112 -111l-21 17l112 116zM414 673h-302v-260h302v-44h-302v-328h302v-41h-343v714h343v-41z" />
    <glyph glyph-name="Ecircumflex" unicode="&#xca;" horiz-adv-x="473" 
d="M247 898l120 -121l-20 -21l-100 99l-100 -99l-21 21zM414 673h-302v-260h302v-44h-302v-328h302v-41h-343v714h343v-41z" />
    <glyph glyph-name="Edieresis" unicode="&#xcb;" horiz-adv-x="473" 
d="M209 796q0 -14 -9.5 -23.5t-23.5 -9.5t-23.5 9.5t-9.5 23.5t9.5 23.5t23.5 9.5t23.5 -9.5t9.5 -23.5zM346 796q0 -14 -10 -23.5t-23 -9.5t-23 9.5t-10 23.5t10 23.5t23 9.5t23 -9.5t10 -23.5zM414 673h-302v-260h302v-44h-302v-328h302v-41h-343v714h343v-41z" />
    <glyph glyph-name="Igrave" unicode="&#xcc;" horiz-adv-x="192" 
d="M107 752l-119 119l21 22l120 -121zM117 0h-40v714h40v-714z" />
    <glyph glyph-name="Iacute" unicode="&#xcd;" horiz-adv-x="192" 
d="M201 865l-111 -111l-20 19l112 112zM117 0h-40v714h40v-714z" />
    <glyph glyph-name="Icircumflex" unicode="&#xce;" horiz-adv-x="192" 
d="M96 878l120 -121l-20 -21l-100 99l-100 -99l-22 21zM117 0h-40v714h40v-714z" />
    <glyph glyph-name="Idieresis" unicode="&#xcf;" horiz-adv-x="192" 
d="M60 796q0 -14 -10 -23.5t-23 -9.5t-23 9.5t-10 23.5t10 23.5t23 9.5t23 -9.5t10 -23.5zM197 796q0 -14 -9.5 -23.5t-23.5 -9.5t-23.5 9.5t-9.5 23.5t9.5 23.5t23.5 9.5t23.5 -9.5t9.5 -23.5zM117 0h-40v714h40v-714z" />
    <glyph glyph-name="Eth" unicode="&#xd0;" horiz-adv-x="688" 
d="M116 339v-298h198q112 0 195 86t83 231t-83 230.5t-195 85.5h-198v-294h127v-41h-127zM76 339h-44v41h44v334h238q136 0 227.5 -100.5t91.5 -255.5t-91.5 -256.5t-227.5 -101.5h-238v339z" />
    <glyph glyph-name="Ntilde" unicode="&#xd1;" horiz-adv-x="715" 
d="M200 778q12 22 37 36.5t58 14.5q31 0 69 -19q30 -16 64 -16q40 0 64 28l29 -22q-38 -47 -89 -47q-41 0 -77 18q-41 18 -65 18q-35 0 -62 -33zM610 714h41v-726l-534 618v-606h-40v719l533 -625v620z" />
    <glyph glyph-name="Ograve" unicode="&#xd2;" horiz-adv-x="822" 
d="M409 752l-118 119l20 22l121 -121zM785 357q0 -161 -103.5 -264t-264.5 -103t-264 103t-103 264t103 264t264 103t264.5 -103t103.5 -264zM417 31q143 0 235 92t92 234q0 143 -92 235t-235 92q-142 0 -234 -92.5t-92 -234.5t92 -234t234 -92z" />
    <glyph glyph-name="Oacute" unicode="&#xd3;" horiz-adv-x="822" 
d="M511 865l-111 -111l-19 19l111 112zM785 357q0 -161 -103.5 -264t-264.5 -103t-264 103t-103 264t103 264t264 103t264.5 -103t103.5 -264zM417 31q143 0 235 92t92 234q0 143 -92 235t-235 92q-142 0 -234 -92.5t-92 -234.5t92 -234t234 -92z" />
    <glyph glyph-name="Ocircumflex" unicode="&#xd4;" horiz-adv-x="822" 
d="M414 903l121 -121l-21 -21l-100 99l-100 -99l-21 21zM785 357q0 -161 -103.5 -264t-264.5 -103t-264 103t-103 264t103 264t264 103t264.5 -103t103.5 -264zM417 31q143 0 235 92t92 234q0 143 -92 235t-235 92q-142 0 -234 -92.5t-92 -234.5t92 -234t234 -92z" />
    <glyph glyph-name="Otilde" unicode="&#xd5;" horiz-adv-x="822" 
d="M245 790q12 22 37 36.5t58 14.5q31 0 69 -19q30 -16 64 -16q40 0 64 28l29 -22q-38 -47 -89 -47q-41 0 -77 18q-41 18 -65 18q-35 0 -62 -33zM785 357q0 -161 -103.5 -264t-264.5 -103t-264 103t-103 264t103 264t264 103t264.5 -103t103.5 -264zM417 31q143 0 235 92
t92 234q0 143 -92 235t-235 92q-142 0 -234 -92.5t-92 -234.5t92 -234t234 -92z" />
    <glyph glyph-name="Odieresis" unicode="&#xd6;" horiz-adv-x="822" 
d="M378 796q0 -14 -10 -23.5t-23 -9.5t-23 9.5t-10 23.5t10 23.5t23 9.5t23 -9.5t10 -23.5zM515 796q0 -14 -9.5 -23.5t-23.5 -9.5t-23.5 9.5t-9.5 23.5t9.5 23.5t23.5 9.5t23.5 -9.5t9.5 -23.5zM785 357q0 -161 -103.5 -264t-264.5 -103t-264 103t-103 264t103 264t264 103
t264.5 -103t103.5 -264zM417 31q143 0 235 92t92 234q0 143 -92 235t-235 92q-142 0 -234 -92.5t-92 -234.5t92 -234t234 -92z" />
    <glyph glyph-name="multiply" unicode="&#xd7;" horiz-adv-x="361" 
d="M67 413l115 -171l114 171l34 -21l-123 -183l126 -188l-34 -21l-117 173l-117 -173l-33 23l125 185l-123 183z" />
    <glyph glyph-name="Oslash" unicode="&#xd8;" horiz-adv-x="822" 
d="M785 357q0 -161 -103.5 -264t-264.5 -103q-106 0 -191 48l-40 -58l-36 24l40 58q-66 49 -103 125t-37 170q0 161 103 264t264 103q111 0 199 -52l41 58l37 -23l-42 -60q63 -49 98 -124t35 -166zM417 684q-142 0 -234 -92.5t-92 -234.5q0 -82 32.5 -149.5t90.5 -111.5
l379 542q-79 46 -176 46zM250 72q76 -41 167 -41q143 0 235 92t92 234q0 79 -30.5 145.5t-85.5 110.5z" />
    <glyph glyph-name="Ugrave" unicode="&#xd9;" horiz-adv-x="555" 
d="M292 752l-119 119l21 22l120 -121zM116 178q0 -68 49 -106t117 -38t117.5 38t49.5 106v536h41v-536q0 -88 -60.5 -136.5t-147.5 -48.5t-146.5 48.5t-59.5 136.5v536h40v-536z" />
    <glyph glyph-name="Uacute" unicode="&#xda;" horiz-adv-x="555" 
d="M398 865l-111 -111l-20 19l112 112zM116 178q0 -68 49 -106t117 -38t117.5 38t49.5 106v536h41v-536q0 -88 -60.5 -136.5t-147.5 -48.5t-146.5 48.5t-59.5 136.5v536h40v-536z" />
    <glyph glyph-name="Ucircumflex" unicode="&#xdb;" horiz-adv-x="555" 
d="M284 903l120 -121l-20 -21l-100 99l-100 -99l-22 21zM116 178q0 -68 49 -106t117 -38t117.5 38t49.5 106v536h41v-536q0 -88 -60.5 -136.5t-147.5 -48.5t-146.5 48.5t-59.5 136.5v536h40v-536z" />
    <glyph glyph-name="Udieresis" unicode="&#xdc;" horiz-adv-x="555" 
d="M245 796q0 -14 -9.5 -23.5t-23.5 -9.5t-23.5 9.5t-9.5 23.5t9.5 23.5t23.5 9.5t23.5 -9.5t9.5 -23.5zM382 796q0 -14 -10 -23.5t-23 -9.5t-23 9.5t-10 23.5t10 23.5t23 9.5t23 -9.5t10 -23.5zM116 178q0 -68 49 -106t117 -38t117.5 38t49.5 106v536h41v-536
q0 -88 -60.5 -136.5t-147.5 -48.5t-146.5 48.5t-59.5 136.5v536h40v-536z" />
    <glyph glyph-name="Yacute" unicode="&#xdd;" horiz-adv-x="511" 
d="M80 714l176 -309l178 309h47l-204 -357v-357h-41v357l-203 357h47zM379 865l-112 -111l-21 17l112 116z" />
    <glyph glyph-name="Thorn" unicode="&#xde;" horiz-adv-x="490" 
d="M250 540q86 0 140 -48t54 -129t-54.5 -130.5t-139.5 -49.5h-134v-183h-40v714h40v-174h134zM249 224q67 0 110.5 38t43.5 101q0 62 -43.5 99t-110.5 37h-133v-275h133z" />
    <glyph glyph-name="germandbls" unicode="&#xdf;" horiz-adv-x="539" 
d="M245 714q70 0 120 -47t50 -115q0 -95 -80 -148q69 -10 119.5 -57.5t50.5 -136.5q0 -92 -52 -151t-142 -59h-113v41h114q69 0 110.5 50t41.5 119q0 163 -214 163v40q49 0 86.5 40t37.5 99q0 52 -38 86.5t-91 34.5q-126 0 -126 -137v-536h-40v372h-57v41h57v124
q0 85 46 131t120 46z" />
    <glyph glyph-name="agrave" unicode="&#xe0;" horiz-adv-x="510" 
d="M259 469l-131 133l22 24l134 -134zM248 -7q-88 0 -150.5 62.5t-62.5 150.5t62.5 150.5t150.5 62.5q102 0 165 -78v72h41v-413h-41v71q-63 -78 -165 -78zM75 206q0 -72 50.5 -122.5t122.5 -50.5t122.5 50.5t50.5 122.5t-50.5 122.5t-122.5 50.5t-122.5 -50.5t-50.5 -122.5
z" />
    <glyph glyph-name="aacute" unicode="&#xe1;" horiz-adv-x="510" 
d="M372 602l-131 -133l-25 23l134 134zM248 -7q-88 0 -150.5 62.5t-62.5 150.5t62.5 150.5t150.5 62.5q102 0 165 -78v72h41v-413h-41v71q-63 -78 -165 -78zM75 206q0 -72 50.5 -122.5t122.5 -50.5t122.5 50.5t50.5 122.5t-50.5 122.5t-122.5 50.5t-122.5 -50.5
t-50.5 -122.5z" />
    <glyph glyph-name="acircumflex" unicode="&#xe2;" horiz-adv-x="510" 
d="M245 616l120 -120l-20 -22l-100 99l-100 -99l-22 22zM248 -7q-88 0 -150.5 62.5t-62.5 150.5t62.5 150.5t150.5 62.5q102 0 165 -78v72h41v-413h-41v71q-63 -78 -165 -78zM75 206q0 -72 50.5 -122.5t122.5 -50.5t122.5 50.5t50.5 122.5t-50.5 122.5t-122.5 50.5
t-122.5 -50.5t-50.5 -122.5z" />
    <glyph glyph-name="atilde" unicode="&#xe3;" horiz-adv-x="510" 
d="M91 513q12 22 37 36.5t58 14.5q40 0 69 -19q30 -16 59 -16q43 0 69 28l28 -22q-36 -47 -95 -47q-41 0 -69 17q-30 19 -61 19q-19 0 -32.5 -5.5t-19.5 -10.5t-16 -17zM248 -7q-88 0 -150.5 62.5t-62.5 150.5t62.5 150.5t150.5 62.5q102 0 165 -78v72h41v-413h-41v71
q-63 -78 -165 -78zM75 206q0 -72 50.5 -122.5t122.5 -50.5t122.5 50.5t50.5 122.5t-50.5 122.5t-122.5 50.5t-122.5 -50.5t-50.5 -122.5z" />
    <glyph glyph-name="adieresis" unicode="&#xe4;" horiz-adv-x="510" 
d="M204 520q0 -14 -10 -23.5t-23 -9.5t-23 9.5t-10 23.5t10 23.5t23 9.5t23 -9.5t10 -23.5zM341 520q0 -14 -9.5 -23.5t-23.5 -9.5t-23.5 9.5t-9.5 23.5t9.5 23.5t23.5 9.5t23.5 -9.5t9.5 -23.5zM248 -7q-88 0 -150.5 62.5t-62.5 150.5t62.5 150.5t150.5 62.5q102 0 165 -78
v72h41v-413h-41v71q-63 -78 -165 -78zM75 206q0 -72 50.5 -122.5t122.5 -50.5t122.5 50.5t50.5 122.5t-50.5 122.5t-122.5 50.5t-122.5 -50.5t-50.5 -122.5z" />
    <glyph glyph-name="aring" unicode="&#xe5;" horiz-adv-x="510" 
d="M327 538q0 -34 -24.5 -58.5t-58.5 -24.5t-58.5 24.5t-24.5 58.5t24.5 58.5t58.5 24.5t58.5 -24.5t24.5 -58.5zM182 539q0 -25 18 -43.5t44 -18.5t44 18.5t18 43.5t-18 43.5t-44 18.5t-44 -18.5t-18 -43.5zM248 -7q-88 0 -150.5 62.5t-62.5 150.5t62.5 150.5t150.5 62.5
q102 0 165 -78v72h41v-413h-41v71q-63 -78 -165 -78zM75 206q0 -72 50.5 -122.5t122.5 -50.5t122.5 50.5t50.5 122.5t-50.5 122.5t-122.5 50.5t-122.5 -50.5t-50.5 -122.5z" />
    <glyph glyph-name="ae" unicode="&#xe6;" horiz-adv-x="878" 
d="M630 418q95 0 154 -58.5t59 -144.5h-387q0 -85 48 -134t126 -49q105 0 153 87l37 -17q-55 -110 -190 -110q-116 0 -176 86v-78h-41v71q-63 -78 -165 -78q-88 0 -150.5 62.5t-62.5 150.5t62.5 150.5t150.5 62.5q102 0 165 -78v72h41v-81q61 86 176 86zM75 206
q0 -72 50.5 -122.5t122.5 -50.5t122.5 50.5t50.5 122.5t-50.5 122.5t-122.5 50.5t-122.5 -50.5t-50.5 -122.5zM797 254q-9 45 -51.5 84.5t-115.5 39.5q-74 0 -114.5 -38t-53.5 -86h335z" />
    <glyph glyph-name="ccedilla" unicode="&#xe7;" horiz-adv-x="438" 
d="M261 420q37 0 68.5 -9t44.5 -18l13 -9v-54q-4 6 -13 14t-41.5 22t-71.5 14q-76 0 -124.5 -48.5t-48.5 -125.5q0 -76 48 -124.5t125 -48.5q38 0 69.5 12.5t43.5 24.5l13 13v-54q-43 -33 -105 -36l-13 -34q19 -11 25.5 -33.5t-9.5 -46.5q-24 -26 -53 -24t-47 25l13 35
q11 -13 25.5 -18t26.5 6q11 14 1 28.5t-25 21.5l13 39q-84 9 -138 66.5t-54 147.5q0 94 60 154t154 60z" />
    <glyph glyph-name="egrave" unicode="&#xe8;" horiz-adv-x="490" 
d="M267 469l-131 133l22 24l134 -134zM415 254q-10 46 -52 86t-115 40q-74 0 -114.5 -39t-53.5 -87h335zM401 119l37 -17q-55 -110 -190 -110q-94 0 -154 60t-60 154t61 154t153 60q95 0 154 -59.5t59 -145.5h-387q0 -85 48 -134t126 -49q105 0 153 87z" />
    <glyph glyph-name="eacute" unicode="&#xe9;" horiz-adv-x="490" 
d="M356 602l-132 -133l-24 23l134 134zM415 254q-10 46 -52 86t-115 40q-74 0 -114.5 -39t-53.5 -87h335zM401 119l37 -17q-55 -110 -190 -110q-94 0 -154 60t-60 154t61 154t153 60q95 0 154 -59.5t59 -145.5h-387q0 -85 48 -134t126 -49q105 0 153 87z" />
    <glyph glyph-name="ecircumflex" unicode="&#xea;" horiz-adv-x="490" 
d="M252 616l120 -120l-20 -22l-100 99l-100 -99l-21 22zM415 254q-10 46 -52 86t-115 40q-74 0 -114.5 -39t-53.5 -87h335zM401 119l37 -17q-55 -110 -190 -110q-94 0 -154 60t-60 154t61 154t153 60q95 0 154 -59.5t59 -145.5h-387q0 -85 48 -134t126 -49q105 0 153 87z
" />
    <glyph glyph-name="edieresis" unicode="&#xeb;" horiz-adv-x="490" 
d="M211 520q0 -14 -9.5 -23.5t-23.5 -9.5t-23.5 9.5t-9.5 23.5t9.5 23.5t23.5 9.5t23.5 -9.5t9.5 -23.5zM348 520q0 -14 -10 -23.5t-23 -9.5t-23 9.5t-10 23.5t10 23.5t23 9.5t23 -9.5t10 -23.5zM415 254q-10 46 -52 86t-115 40q-74 0 -114.5 -39t-53.5 -87h335zM401 119
l37 -17q-55 -110 -190 -110q-94 0 -154 60t-60 154t61 154t153 60q95 0 154 -59.5t59 -145.5h-387q0 -85 48 -134t126 -49q105 0 153 87z" />
    <glyph glyph-name="igrave" unicode="&#xec;" horiz-adv-x="184" 
d="M94 469l-132 133l23 24l133 -134zM114 413v-413h-41v413h41z" />
    <glyph glyph-name="iacute" unicode="&#xed;" horiz-adv-x="184" 
d="M230 602l-132 -133l-25 23l134 134zM114 413v-413h-41v413h41z" />
    <glyph glyph-name="icircumflex" unicode="&#xee;" horiz-adv-x="255" 
d="M130 616l120 -120l-20 -22l-100 99l-100 -99l-22 22zM148 413v-413h-41v413h41z" />
    <glyph glyph-name="idieresis" unicode="&#xef;" horiz-adv-x="184" 
d="M114 413v-413h-41v413h41zM56 520q0 -14 -10 -23.5t-23 -9.5t-23 9.5t-10 23.5t10 23.5t23 9.5t23 -9.5t10 -23.5zM193 520q0 -14 -9.5 -23.5t-23.5 -9.5t-23.5 9.5t-9.5 23.5t9.5 23.5t23.5 9.5t23.5 -9.5t9.5 -23.5z" />
    <glyph glyph-name="eth" unicode="&#xf0;" horiz-adv-x="498" 
d="M75 206q0 -72 50.5 -122.5t122.5 -50.5t122.5 50.5t50.5 122.5t-50.5 122.5t-122.5 50.5t-122.5 -50.5t-50.5 -122.5zM403 352q-26 122 -127 198l-86 -54l-40 26l87 55q-46 27 -96 44l36 35q55 -17 105 -51l88 55l40 -26l-91 -57q73 -62 107.5 -145t34.5 -226
q0 -88 -62.5 -150.5t-150.5 -62.5t-150.5 62.5t-62.5 150.5t62.5 150.5t150.5 62.5q93 0 155 -67z" />
    <glyph glyph-name="ntilde" unicode="&#xf1;" horiz-adv-x="451" 
d="M64 513q12 22 37 36.5t58 14.5q31 0 69 -19q30 -16 64 -16q40 0 64 28l29 -22q-38 -47 -89 -47q-41 0 -77 18q-41 18 -65 18q-35 0 -62 -33zM66 0v413h41v-50q28 55 119 55q80 0 119.5 -45.5t39.5 -121.5v-251h-41v247q0 62 -30 96.5t-88 34.5t-88.5 -34.5t-30.5 -92.5
v-251h-41z" />
    <glyph glyph-name="ograve" unicode="&#xf2;" horiz-adv-x="498" 
d="M266 469l-131 133l22 24l134 -134zM461 206q0 -88 -62.5 -150.5t-150.5 -62.5t-150.5 62.5t-62.5 150.5q0 89 62.5 151.5t150.5 62.5t150.5 -62.5t62.5 -151.5zM75 206q0 -72 50.5 -122.5t122.5 -50.5t122.5 50.5t50.5 122.5t-50.5 123t-122.5 51t-122.5 -51t-50.5 -123z
" />
    <glyph glyph-name="oacute" unicode="&#xf3;" horiz-adv-x="498" 
d="M360 602l-131 -133l-25 23l134 134zM461 206q0 -88 -62.5 -150.5t-150.5 -62.5t-150.5 62.5t-62.5 150.5q0 89 62.5 151.5t150.5 62.5t150.5 -62.5t62.5 -151.5zM75 206q0 -72 50.5 -122.5t122.5 -50.5t122.5 50.5t50.5 122.5t-50.5 123t-122.5 51t-122.5 -51t-50.5 -123
z" />
    <glyph glyph-name="ocircumflex" unicode="&#xf4;" horiz-adv-x="498" 
d="M245 616l120 -120l-20 -22l-100 99l-100 -99l-22 22zM461 206q0 -88 -62.5 -150.5t-150.5 -62.5t-150.5 62.5t-62.5 150.5q0 89 62.5 151.5t150.5 62.5t150.5 -62.5t62.5 -151.5zM75 206q0 -72 50.5 -122.5t122.5 -50.5t122.5 50.5t50.5 122.5t-50.5 123t-122.5 51
t-122.5 -51t-50.5 -123z" />
    <glyph glyph-name="otilde" unicode="&#xf5;" horiz-adv-x="498" 
d="M82 513q12 22 37 36.5t58 14.5q31 0 69 -19q30 -16 64 -16q40 0 64 28l29 -22q-38 -47 -89 -47q-41 0 -77 18q-41 18 -65 18q-35 0 -62 -33zM461 206q0 -88 -62.5 -150.5t-150.5 -62.5t-150.5 62.5t-62.5 150.5q0 89 62.5 151.5t150.5 62.5t150.5 -62.5t62.5 -151.5z
M75 206q0 -72 50.5 -122.5t122.5 -50.5t122.5 50.5t50.5 122.5t-50.5 123t-122.5 51t-122.5 -51t-50.5 -123z" />
    <glyph glyph-name="odieresis" unicode="&#xf6;" horiz-adv-x="498" 
d="M208 520q0 -14 -10 -23.5t-23 -9.5t-23 9.5t-10 23.5t10 23.5t23 9.5t23 -9.5t10 -23.5zM345 520q0 -14 -9.5 -23.5t-23.5 -9.5t-23.5 9.5t-9.5 23.5t9.5 23.5t23.5 9.5t23.5 -9.5t9.5 -23.5zM461 206q0 -88 -62.5 -150.5t-150.5 -62.5t-150.5 62.5t-62.5 150.5
q0 89 62.5 151.5t150.5 62.5t150.5 -62.5t62.5 -151.5zM75 206q0 -72 50.5 -122.5t122.5 -50.5t122.5 50.5t50.5 122.5t-50.5 123t-122.5 51t-122.5 -51t-50.5 -123z" />
    <glyph glyph-name="divide" unicode="&#xf7;" horiz-adv-x="362" 
d="M57 290h257v-51h-257v51zM218 146q0 -14 -10 -23.5t-23 -9.5t-23 9.5t-10 23.5t10 23.5t23 9.5t23 -9.5t10 -23.5zM218 381q0 -13 -10 -23t-23 -10t-23 10t-10 23t10 23t23 10t23 -10t10 -23z" />
    <glyph glyph-name="oslash" unicode="&#xf8;" horiz-adv-x="498" 
d="M396 447l36 -24l-41 -59q70 -63 70 -158q0 -88 -62.5 -150.5t-150.5 -62.5q-54 0 -101 25l-37 -53l-34 25l36 52q-77 64 -77 164q0 88 62.5 150.5t150.5 62.5q56 0 108 -29zM171 51q38 -18 77 -18q72 0 122.5 50.5t50.5 122.5q0 75 -53 125zM248 379q-72 0 -122.5 -50.5
t-50.5 -122.5q0 -81 60 -131l198 282q-39 22 -85 22z" />
    <glyph glyph-name="ugrave" unicode="&#xf9;" horiz-adv-x="429" 
d="M219 469l-131 133l22 24l134 -134zM102 413v-258q0 -123 112 -123q115 0 115 123v258h40v-258q0 -76 -41 -119.5t-114 -43.5t-113 43.5t-40 119.5v258h41z" />
    <glyph glyph-name="uacute" unicode="&#xfa;" horiz-adv-x="429" 
d="M351 602l-132 -133l-24 23l134 134zM102 413v-258q0 -123 112 -123q115 0 115 123v258h40v-258q0 -76 -41 -119.5t-114 -43.5t-113 43.5t-40 119.5v258h41z" />
    <glyph glyph-name="ucircumflex" unicode="&#xfb;" horiz-adv-x="429" 
d="M215 616l121 -120l-21 -22l-100 99l-100 -99l-21 22zM102 413v-258q0 -123 112 -123q115 0 115 123v258h40v-258q0 -76 -41 -119.5t-114 -43.5t-113 43.5t-40 119.5v258h41z" />
    <glyph glyph-name="udieresis" unicode="&#xfc;" horiz-adv-x="429" 
d="M178 520q0 -14 -10 -23.5t-23 -9.5t-23 9.5t-10 23.5t10 23.5t23 9.5t23 -9.5t10 -23.5zM315 520q0 -14 -9.5 -23.5t-23.5 -9.5t-23.5 9.5t-9.5 23.5t9.5 23.5t23.5 9.5t23.5 -9.5t9.5 -23.5zM102 413v-258q0 -123 112 -123q115 0 115 123v258h40v-258q0 -76 -41 -119.5
t-114 -43.5t-113 43.5t-40 119.5v258h41z" />
    <glyph glyph-name="yacute" unicode="&#xfd;" horiz-adv-x="445" 
d="M226 87l152 326h45l-282 -607h-46l107 232l-174 375h44zM368 602l-133 -133l-24 24l133 133z" />
    <glyph glyph-name="thorn" unicode="&#xfe;" horiz-adv-x="513" 
d="M275 419q89 0 151 -62.5t62 -150.5t-62 -150.5t-151 -62.5q-51 0 -95.5 22.5t-74.5 61.5v-271h-41v934h41v-405q64 84 170 84zM102 206q0 -72 50.5 -122.5t122.5 -50.5t122.5 50.5t50.5 122.5t-50.5 122.5t-122.5 50.5t-122.5 -50.5t-50.5 -122.5z" />
    <glyph glyph-name="ydieresis" unicode="&#xff;" horiz-adv-x="445" 
d="M194 520q0 -14 -10 -23.5t-23 -9.5t-23 9.5t-10 23.5t10 23.5t23 9.5t23 -9.5t10 -23.5zM331 520q0 -14 -9.5 -23.5t-23.5 -9.5t-23.5 9.5t-9.5 23.5t9.5 23.5t23.5 9.5t23.5 -9.5t9.5 -23.5zM226 87l152 326h45l-282 -607h-46l107 232l-174 375h44z" />
    <glyph glyph-name="dotlessi" unicode="&#x131;" horiz-adv-x="184" 
d="M113 413v-413h-41v413h41z" />
    <glyph glyph-name="Lslash" unicode="&#x141;" horiz-adv-x="356" 
d="M116 280v-239h201v-41h-241v246l-58 -58v55l58 58v413h40v-379l120 119v-55z" />
    <glyph glyph-name="lslash" unicode="&#x142;" horiz-adv-x="192" 
d="M117 282v-282h-40v246l-59 -58v55l59 59v438h40v-403l58 58v-55z" />
    <glyph glyph-name="OE" unicode="&#x152;" horiz-adv-x="1148" 
d="M744 714h343v-41h-302v-260h302v-44h-302v-328h302v-41h-343v179q-45 -88 -131 -138.5t-196 -50.5q-161 0 -264 103t-103 264t103 264t264 103q110 0 195.5 -50.5t131.5 -138.5v179zM417 31q143 0 235 92t92 234q0 143 -92 235t-235 92q-142 0 -234 -92.5t-92 -234.5
t92 -234t234 -92z" />
    <glyph glyph-name="oe" unicode="&#x153;" horiz-adv-x="883" 
d="M636 418q95 0 154 -58.5t59 -144.5h-387q0 -85 48 -134t126 -49q105 0 153 87l37 -17q-55 -110 -190 -110q-68 0 -120 33t-76 90q-25 -55 -77 -88.5t-115 -33.5q-88 0 -150.5 62.5t-62.5 150.5t62.5 150.5t150.5 62.5q63 0 114.5 -33.5t77.5 -88.5q25 56 77 88.5
t119 32.5zM75 206q0 -72 50.5 -122.5t122.5 -50.5t122.5 50.5t50.5 122.5t-50.5 122.5t-122.5 50.5t-122.5 -50.5t-50.5 -122.5zM803 254q-9 45 -51.5 84.5t-115.5 39.5q-74 0 -114.5 -38t-53.5 -86h335z" />
    <glyph glyph-name="Scaron" unicode="&#x160;" horiz-adv-x="498" 
d="M399 607q-43 71 -139 71q-60 0 -100 -33.5t-40 -91.5q0 -23 9 -43t20 -32.5t33.5 -26.5t37.5 -21l44 -20q35 -16 58 -28t51.5 -32.5t45 -42t28 -53t11.5 -69.5q0 -88 -52 -140.5t-155 -52.5q-166 0 -211 155l41 14q38 -128 170 -128q83 0 124.5 41.5t41.5 110.5
q0 38 -13 67.5t-41.5 51.5t-52 34.5t-65.5 30.5q-39 17 -62 29.5t-50.5 34.5t-40.5 51.5t-13 68.5q0 73 51 119t130 46q127 0 178 -94zM263 739l-121 120l21 22l100 -99l100 99l21 -22z" />
    <glyph glyph-name="scaron" unicode="&#x161;" horiz-adv-x="331" 
d="M256 345q-34 34 -87 34q-30 0 -51 -17t-21 -46t19 -44t60 -29q32 -12 47.5 -19t39.5 -22t34.5 -37t10.5 -52q0 -51 -37.5 -86t-97.5 -35q-97 0 -144 87l35 21q14 -30 42.5 -48.5t66.5 -18.5q46 0 70 21.5t24 58.5q0 17 -7 30.5t-14 21.5t-25.5 17t-28 12.5t-33.5 11.5
q-49 16 -76 39.5t-27 70.5q0 43 33 73t80 30q69 0 117 -48zM170 439l-121 120l21 22l100 -99l100 99l21 -22z" />
    <glyph glyph-name="Ydieresis" unicode="&#x178;" horiz-adv-x="511" 
d="M217 796q0 -14 -9.5 -23.5t-23.5 -9.5t-23.5 9.5t-9.5 23.5t9.5 23.5t23.5 9.5t23.5 -9.5t9.5 -23.5zM354 796q0 -14 -10 -23.5t-23 -9.5t-23 9.5t-10 23.5t10 23.5t23 9.5t23 -9.5t10 -23.5zM80 714l176 -309l178 309h47l-204 -357v-357h-41v357l-203 357h47z" />
    <glyph glyph-name="Zcaron" unicode="&#x17d;" horiz-adv-x="554" 
d="M522 714l-410 -673h408v-41h-481l409 672h-385v42h459zM283 739l-121 120l21 22l100 -99l100 99l21 -22z" />
    <glyph glyph-name="zcaron" unicode="&#x17e;" horiz-adv-x="457" 
d="M424 413l-293 -372h288v-41h-373l295 374h-278v39h361zM233 439l-121 120l21 22l100 -99l100 99l21 -22z" />
    <glyph glyph-name="florin" unicode="&#x192;" horiz-adv-x="596" 
d="M544 496v-496h-496v496h496z" />
    <glyph glyph-name="circumflex" unicode="&#x2c6;" horiz-adv-x="378" 
d="M192 616l120 -120l-20 -22l-100 99l-100 -99l-20 22z" />
    <glyph glyph-name="caron" unicode="&#x2c7;" horiz-adv-x="378" 
d="M188 439l-121 120l21 22l100 -99l100 99l21 -22z" />
    <glyph glyph-name="breve" unicode="&#x2d8;" horiz-adv-x="362" 
d="M189 487q-67 0 -108 44l21 24q39 -39 91 -39q49 0 85 37l18 -22q-39 -44 -107 -44z" />
    <glyph glyph-name="dotaccent" unicode="&#x2d9;" horiz-adv-x="311" 
d="M194 529q0 -13 -10 -23t-23 -10t-23 10t-10 23t10 23t23 10t23 -10t10 -23z" />
    <glyph glyph-name="ring" unicode="&#x2da;" horiz-adv-x="296" 
d="M236 538q0 -34 -24 -58.5t-59 -24.5t-59 24.5t-24 58.5t24 58.5t59 24.5t59 -24.5t24 -58.5zM91 539q0 -25 18.5 -43.5t43.5 -18.5t43.5 18.5t18.5 43.5t-18.5 43.5t-43.5 18.5t-43.5 -18.5t-18.5 -43.5z" />
    <glyph glyph-name="ogonek" unicode="&#x2db;" horiz-adv-x="265" 
d="M116 -71q0 -36 30 -36q25 0 48 21v-40q-20 -24 -64 -24q-27 0 -43.5 18.5t-16.5 45.5q0 36 25 86h46q-25 -43 -25 -71z" />
    <glyph glyph-name="tilde" unicode="&#x2dc;" horiz-adv-x="423" 
d="M56 513q12 22 37 36.5t58 14.5q31 0 69 -19q30 -16 64 -16q40 0 64 28l29 -22q-38 -47 -89 -47q-41 0 -77 18q-41 18 -65 18q-35 0 -62 -33z" />
    <glyph glyph-name="hungarumlaut" unicode="&#x2dd;" horiz-adv-x="303" 
d="M241 679l-62 -177l-33 10l64 179zM139 679l-62 -177l-33 10l64 179z" />
    <glyph glyph-name="pi" unicode="&#x3c0;" 
d="M327 380v-26h-255v26h255zM116 673q5 35 27.5 55.5t58.5 20.5q38 0 62 -23.5t24 -58.5q0 -61 -60 -74q63 -19 63 -86q0 -38 -25.5 -63.5t-66.5 -25.5q-36 0 -59 20t-29 50h20q6 -21 24.5 -36.5t43.5 -15.5q30 0 51 21t21 50q0 36 -23 54.5t-44 18.5h-19v26h19
q13 0 25 3.5t24.5 18t12.5 39.5q0 27 -18 45t-46 18q-27 0 -44 -16t-21 -41h-21zM264 78h28v-18h-28v-61h-19v61h-165l184 265v-247zM245 78v187l-132 -187h132z" />
    <glyph glyph-name="endash" unicode="&#x2013;" horiz-adv-x="372" 
d="M333 285v-41h-291v41h291z" />
    <glyph glyph-name="emdash" unicode="&#x2014;" horiz-adv-x="617" 
d="M572 285v-41h-520v41h520z" />
    <glyph glyph-name="quoteleft" unicode="&#x2018;" horiz-adv-x="163" 
d="M110 564h-53v117q0 27 18 47h20q-18 -20 -18 -47v-45h33v-72z" />
    <glyph glyph-name="quoteright" unicode="&#x2019;" horiz-adv-x="158" 
d="M63 736h53v-117q0 -27 -18 -47h-20q18 20 18 47v45h-33v72z" />
    <glyph glyph-name="quotesinglbase" unicode="&#x201a;" horiz-adv-x="158" 
d="M63 132h53v-117q0 -27 -18 -47h-20q18 20 18 47v45h-33v72z" />
    <glyph glyph-name="quotedblleft" unicode="&#x201c;" horiz-adv-x="286" 
d="M114 564h-53v117q0 27 18 47h20q-18 -20 -18 -47v-45h33v-72zM229 564h-53v117q0 27 18 47h20q-18 -20 -18 -47v-45h33v-72z" />
    <glyph glyph-name="quotedblright" unicode="&#x201d;" horiz-adv-x="301" 
d="M181 736h53v-117q0 -27 -18 -47h-20q18 20 18 47v45h-33v72zM66 736h53v-117q0 -27 -18 -47h-20q18 20 18 47v45h-33v72z" />
    <glyph glyph-name="quotedblbase" unicode="&#x201e;" horiz-adv-x="301" 
d="M181 132h53v-117q0 -27 -18 -47h-20q18 20 18 47v45h-33v72zM66 132h53v-117q0 -27 -18 -47h-20q18 20 18 47v45h-33v72z" />
    <glyph glyph-name="dagger" unicode="&#x2020;" horiz-adv-x="245" 
d="M110 154v393h-67v27h67v162h28v-162h67v-27h-67v-393h-28z" />
    <glyph glyph-name="daggerdbl" unicode="&#x2021;" horiz-adv-x="245" 
d="M116 67v298h-67v28h67v149h-67v27h67v167h28v-167h67v-27h-67v-149h67v-28h-67v-298h-28z" />
    <glyph glyph-name="bullet" unicode="&#x2022;" horiz-adv-x="353" 
d="M304 250q0 -52 -37 -89t-89 -37t-89 37t-37 89t37 89t89 37t89 -37t37 -89z" />
    <glyph glyph-name="ellipsis" unicode="&#x2026;" horiz-adv-x="418" 
d="M101 27q0 -13 -9.5 -23t-23.5 -10t-23.5 10t-9.5 23t9.5 23t23.5 10t23.5 -10t9.5 -23zM244 27q0 -13 -10 -23t-23 -10t-23 10t-10 23t10 23t23 10t23 -10t10 -23zM387 27q0 -13 -9.5 -23t-23.5 -10t-23.5 10t-9.5 23t9.5 23t23.5 10t23.5 -10t9.5 -23z" />
    <glyph glyph-name="perthousand" unicode="&#x2030;" horiz-adv-x="827" 
d="M798 115q0 -51 -36.5 -87t-88.5 -36q-51 0 -87.5 36t-36.5 87q0 52 36.5 88.5t87.5 36.5q52 0 88.5 -36.5t36.5 -88.5zM673 33q35 0 59.5 24t24.5 58q0 35 -24.5 59.5t-59.5 24.5q-34 0 -58.5 -25t-24.5 -59t24.5 -58t58.5 -24zM71 0h-50l526 714h50zM298 572
q0 -51 -36.5 -87t-88.5 -36q-51 0 -87.5 36t-36.5 87q0 52 36.5 88.5t87.5 36.5q52 0 88.5 -36.5t36.5 -88.5zM173 490q35 0 59.5 24t24.5 58t-24.5 59t-59.5 25q-34 0 -58.5 -25t-24.5 -59t24.5 -58t58.5 -24zM498 115q0 -51 -36.5 -87t-88.5 -36q-51 0 -87.5 36t-36.5 87
q0 52 36.5 88.5t87.5 36.5q52 0 88.5 -36.5t36.5 -88.5zM373 33q35 0 59.5 24t24.5 58q0 35 -24.5 59.5t-59.5 24.5q-34 0 -58.5 -25t-24.5 -59t24.5 -58t58.5 -24z" />
    <glyph glyph-name="guilsinglleft" unicode="&#x2039;" horiz-adv-x="281" 
d="M210 70l-184 185l188 189l21 -21l-169 -168l165 -164z" />
    <glyph glyph-name="guilsinglright" unicode="&#x203a;" horiz-adv-x="281" 
d="M45 423l20 21l189 -189l-185 -185l-20 21l164 164z" />
    <glyph glyph-name="fraction" unicode="&#x2044;" horiz-adv-x="597" 
d="M71 0h-50l546 714h50z" />
    <glyph glyph-name="trademark" unicode="&#x2122;" horiz-adv-x="337" 
d="M148 706v-6h-51v-154h-7v154h-51v6h109zM179 708l51 -148l52 148l33 -161h-7l-28 138l-50 -146l-50 146l-30 -138h-7z" />
    <glyph glyph-name="Omega" unicode="&#x2126;" 
d="M335 380v-26h-254v26h254zM225 741v-322h-18v303h-54l12 19h60zM113 248q3 25 26.5 50.5t67.5 25.5q41 0 67.5 -24.5t26.5 -61.5q0 -22 -11 -45.5t-19.5 -33.5l-31.5 -36l-93 -105h154v-18h-194l121 140q1 1 14 15t16.5 19l11.5 17t10.5 23t2.5 24q0 28 -22 48t-53 20
q-36 0 -53 -19.5t-21 -38.5h-20z" />
    <glyph glyph-name="partialdiff" unicode="&#x2202;" 
d="M327 380v-26h-255v26h255zM213 741v-322h-18v303h-54l12 19h60zM109 247q5 35 27.5 55.5t58.5 20.5q38 0 62 -23.5t24 -58.5q0 -61 -60 -74q63 -19 63 -86q0 -38 -25.5 -63.5t-66.5 -25.5q-36 0 -59 20t-29 50h20q6 -21 24 -36.5t44 -15.5q30 0 51 21t21 50
q0 36 -23 54.5t-44 18.5h-19v26h19q13 0 25 3.5t24.5 18t12.5 39.5q0 27 -18 45t-46 18q-27 0 -44 -16t-21 -41h-21z" />
    <glyph glyph-name="Delta" unicode="&#x2206;" horiz-adv-x="791" 
d="M745 0h-694l347 694zM398 620l-293 -587h588z" />
    <glyph glyph-name="product" unicode="&#x220f;" 
d="M333 380v-26h-254v26h254zM109 666q3 25 26.5 50.5t67.5 25.5q41 0 67.5 -24.5t26.5 -61.5q0 -22 -11 -45.5t-19.5 -33.5l-31.5 -36l-93 -105h154v-18h-194l121 140q1 1 14 15t16.5 19l11.5 17t10.5 23t2.5 24q0 28 -22 48t-53 20q-36 0 -53 -19.5t-21 -38.5h-20z
M115 247q5 35 27.5 55.5t58.5 20.5q38 0 62 -23.5t24 -58.5q0 -61 -60 -74q63 -19 63 -86q0 -38 -25.5 -63.5t-66.5 -25.5q-36 0 -59 20t-29 50h20q6 -21 24 -36.5t44 -15.5q30 0 51 21t21 50q0 36 -23 54.5t-44 18.5h-19v26h19q13 0 25 3.5t24.5 18t12.5 39.5q0 27 -18 45
t-46 18q-27 0 -44 -16t-21 -41h-21z" />
    <glyph glyph-name="summation" unicode="&#x2211;" 
d="M333 380v-26h-254v26h254zM219 741v-322h-18v303h-54l12 19h60zM260 78h28v-18h-28v-61h-19v61h-165l184 265v-247zM241 78v187l-132 -187h132z" />
    <glyph glyph-name="minus" unicode="&#x2212;" horiz-adv-x="464" 
d="M407 285v-41h-350v41h350z" />
    <glyph glyph-name="radical" unicode="&#x221a;" horiz-adv-x="646" 
d="M79 280q58 -82 80 -171q60 138 181 283.5t257 224.5v-102q-270 -151 -439 -469q-56 135 -112 165z" />
    <glyph glyph-name="integral" unicode="&#x222b;" horiz-adv-x="791" 
d="M742 686v-688h-688v688h688zM719 663h-642v-643h642v643z" />
    <glyph glyph-name="approxequal" unicode="&#x2248;" horiz-adv-x="776" 
d="M326 273h124v126h-124v-126zM285 541q0 46 -27 76t-75 30q-47 0 -76.5 -28t-29.5 -77q0 -46 28.5 -74t78.5 -28h101v101zM183 399q-64 0 -105 41t-41 104q0 58 41.5 100.5t101.5 42.5q70 0 108 -41t38 -104v-102h124v102q0 63 38.5 104t107.5 41q61 0 102 -40.5
t41 -102.5t-42.5 -103.5t-103.5 -41.5h-102v-126h102q61 0 103.5 -41t42.5 -103q0 -61 -41 -101.5t-102 -40.5q-69 0 -107.5 40.5t-38.5 103.5v102h-124v-102q0 -63 -38 -103.5t-108 -40.5q-62 0 -102.5 40t-40.5 102t42.5 103t103.5 41h102v126h-102zM592 440q49 0 78 28
t29 74q0 49 -29.5 77t-76.5 28q-48 0 -75 -30t-27 -76v-101h101zM184 233q-50 0 -78.5 -28t-28.5 -74q0 -49 29 -77t77 -28t75 30t27 76v101h-101zM491 132q0 -46 27 -76t75 -30q47 0 76.5 28t29.5 77q0 46 -29 74t-78 28h-101v-101z" />
    <glyph glyph-name="notequal" unicode="&#x2260;" horiz-adv-x="347" 
d="M62 305v41h122l24 83h41l-25 -83h65v-41h-77l-24 -82h101v-40h-113l-27 -91h-41l27 91h-73v40h85l24 82h-109z" />
    <glyph glyph-name="lessequal" unicode="&#x2264;" horiz-adv-x="311" 
d="M270 495v-40l-157 -97l157 -96v-41l-222 137zM276 183v-41h-224v41h224z" />
    <glyph glyph-name="greaterequal" unicode="&#x2265;" horiz-adv-x="311" 
d="M47 255l160 102l-160 101v43l225 -144l-225 -144v42zM274 179v-41h-235v41h235z" />
    <glyph glyph-name="lozenge" unicode="&#x25ca;" horiz-adv-x="408" 
d="M203 410l-157 -157l157 -157l157 157zM18 253l185 185l185 -185l-185 -185z" />
    <glyph glyph-name="CR" unicode="&#xe000;" horiz-adv-x="0" 
 />
    <glyph glyph-name="HT" unicode="&#xe001;" horiz-adv-x="0" 
 />
    <glyph glyph-name="NUL" unicode="&#xe002;" horiz-adv-x="0" 
 />
    <glyph glyph-name="apple" unicode="&#xe003;" horiz-adv-x="790" 
d="M275 530q57 0 91 -24q40 -27 60 -27q33 0 66 27q31 25 84 25q45 0 87.5 -20t48.5 -48q-40 -30 -60 -59.5t-20 -76.5q0 -54 30 -92t72 -50q-13 -31 -29 -60t-41 -63t-58.5 -54.5t-69.5 -20.5q-46 0 -73 33q-13 16 -39 16q-27 0 -40 -16q-25 -31 -66 -31q-26 0 -65.5 28
t-77 73.5t-64.5 111.5t-27 133q0 86 52 140.5t139 54.5zM534 669q10 0 10 -9q0 -43 -38 -92.5t-83 -49.5q-12 0 -12 17q0 46 41 90t82 44z" />
    <glyph glyph-name="nbspace" unicode="&#xe004;" horiz-adv-x="276" 
 />
  </font>
</defs>
</svg>
